<?xml version="1.0" encoding="UTF-8" standalone="no"?>
<svg
   xmlns:dc="http://purl.org/dc/elements/1.1/"
   xmlns:cc="http://creativecommons.org/ns#"
   xmlns:rdf="http://www.w3.org/1999/02/22-rdf-syntax-ns#"
   xmlns:svg="http://www.w3.org/2000/svg"
   xmlns="http://www.w3.org/2000/svg"
   xmlns:sodipodi="http://sodipodi.sourceforge.net/DTD/sodipodi-0.dtd"
   xmlns:inkscape="http://www.inkscape.org/namespaces/inkscape"
   version="1.1"
   id="Layer_1"
   x="0px"
   y="0px"
   width="100"
   height="100"
   viewBox="0 0 100 100"
   enable-background="new 0 0 100 52"
   xml:space="preserve"
   inkscape:version="0.48.4 r9939"
   sodipodi:docname="link.svg"
   inkscape:export-filename="C:\GitHub\ShortlinkExtension\Chrome\icon-128.png"
   inkscape:export-xdpi="115.2"
   inkscape:export-ydpi="115.2"><metadata
   id="metadata39"><rdf:RDF><cc:Work
       rdf:about=""><dc:format>image/svg+xml</dc:format><dc:type
         rdf:resource="http://purl.org/dc/dcmitype/StillImage" /><dc:title></dc:title></cc:Work></rdf:RDF></metadata><defs
   id="defs37" /><sodipodi:namedview
   pagecolor="#ffffff"
   bordercolor="#666666"
   borderopacity="1"
   objecttolerance="10"
   gridtolerance="10"
   guidetolerance="10"
   inkscape:pageopacity="0"
   inkscape:pageshadow="2"
   inkscape:window-width="1172"
   inkscape:window-height="710"
   id="namedview35"
   showgrid="false"
   inkscape:zoom="3.16"
   inkscape:cx="0.63291139"
   inkscape:cy="51.316456"
   inkscape:window-x="0"
   inkscape:window-y="0"
   inkscape:window-maximized="0"
   inkscape:current-layer="Layer_1" />















<g
   id="g3784"
   transform="translate(0,-24.045)"><path
     style="fill:none"
     inkscape:connector-curvature="0"
     id="path3"
     d="m 47.807,81.138 c 0.008,-0.009 0.016,-0.019 0.024,-0.026 -0.009,0.007 -0.018,0.015 -0.026,0.023 0,10e-4 10e-4,0.002 0.002,0.003 z" /><path
     style="fill:none"
     inkscape:connector-curvature="0"
     id="path5"
     d="m 53.048,97.8 c -0.274,-0.071 -0.545,-0.152 -0.815,-0.232 -0.002,0.001 -0.005,0.003 -0.007,0.003 0.259,0.077 0.534,0.155 0.822,0.229 z" /><path
     style="fill:none"
     inkscape:connector-curvature="0"
     id="path7"
     d="m 36.33,83.501 h -0.004 c 0.204,0.522 0.496,1.114 0.783,1.651 h 0.013 c -0.284,-0.54 -0.548,-1.09 -0.792,-1.651 z" /><path
     style="fill:#000000"
     inkscape:connector-curvature="0"
     id="path9"
     d="m 37.108,85.152 c 0.291,0.544 0.577,1.029 0.758,1.332 -0.263,-0.436 -0.508,-0.882 -0.746,-1.332 h -0.012 z" /><path
     style="fill:#000000"
     inkscape:connector-curvature="0"
     id="path11"
     d="m 38.062,86.804 h 0.006 c -0.048,-0.079 -0.1,-0.152 -0.147,-0.231 0.087,0.144 0.141,0.231 0.141,0.231 z" /><path
     style="fill:#000000"
     inkscape:connector-curvature="0"
     id="path13"
     d="m 51.812,97.445 c -0.631,-0.197 -1.249,-0.424 -1.856,-0.669 -0.003,0.002 -0.007,0.003 -0.009,0.004 0.06,0.025 0.781,0.324 1.865,0.665 z" /><path
     style="fill:#000000"
     inkscape:connector-curvature="0"
     id="path15"
     d="m 52.226,97.57 c 0.002,0 0.005,-0.002 0.007,-0.003 -0.106,-0.03 -0.213,-0.057 -0.318,-0.091 0.101,0.033 0.205,0.065 0.311,0.094 z" /><path
     inkscape:connector-curvature="0"
     style="opacity:0.5;fill:#000000"
     id="path17"
     d="M 74.458,48.955 H 59.321 c -1.307,0 -2.591,0.1 -3.845,0.293 -0.273,0.042 -0.541,0.101 -0.811,0.151 4.646,2.666 8.469,6.605 10.987,11.343 h 1.238 8.346 c 7.322,0 13.257,5.937 13.257,13.259 0,7.321 -5.936,13.258 -13.257,13.258 H 65.72 63.762 61.857 61.851 58.68 c -3.305,0 -6.324,-1.212 -8.646,-3.212 0,0 -0.003,0.003 -0.003,0.003 0,-0.002 -10e-4,-0.002 -0.002,-0.003 -0.494,-0.414 -0.886,-0.802 -1.206,-1.148 -0.7,-0.764 -1.011,-1.303 -1.011,-1.303 0.001,-0.002 0.002,-0.002 0.002,-0.003 -10e-4,-0.001 -0.002,-0.002 -0.002,-0.003 -1.505,-2.15 -2.389,-4.766 -2.389,-7.589 0,-2.746 0.834,-5.296 2.263,-7.413 0.041,-0.06 0.086,-0.117 0.127,-0.176 -1.736,-1.473 -3.978,-2.367 -6.429,-2.367 h -5.041 c -1.325,3.052 -2.067,6.416 -2.067,9.956 0,3.538 0.737,6.903 2.061,9.955 0.244,0.561 0.509,1.111 0.792,1.651 0.237,0.45 0.482,0.896 0.746,1.332 0.02,0.033 0.036,0.059 0.054,0.088 0.047,0.079 0.099,0.152 0.147,0.231 2.792,4.463 6.948,7.98 11.888,9.973 0.608,0.245 1.226,0.472 1.856,0.669 0.034,0.011 0.068,0.022 0.103,0.031 0.105,0.034 0.212,0.061 0.318,0.091 0.27,0.08 0.541,0.161 0.815,0.232 0.004,0 0.006,0.002 0.01,0.003 2,0.513 4.096,0.787 6.254,0.787 H 74.457 C 88.289,99.044 99.501,87.831 99.501,74 99.502,60.169 88.29,48.955 74.458,48.955 z" /><path
     inkscape:connector-curvature="0"
     style="opacity:0.5;fill:#000000"
     id="path19"
     d="m 25.542,99.045 h 15.137 c 1.308,0 2.592,-0.101 3.846,-0.294 0.273,-0.042 0.542,-0.1 0.811,-0.151 C 40.69,95.935 36.866,91.996 34.349,87.258 H 33.11 24.764 c -7.322,0 -13.257,-5.936 -13.257,-13.259 0,-7.322 5.935,-13.257 13.257,-13.257 h 9.516 1.957 1.905 0.007 3.17 c 3.304,0 6.323,1.212 8.645,3.212 l 0.002,-0.003 c 10e-4,10e-4 10e-4,0.002 0.002,0.003 0.495,0.413 0.887,0.801 1.206,1.148 0.701,0.762 1.011,1.302 1.011,1.302 0,0.001 -0.001,0.002 -0.002,0.003 10e-4,0 0.002,0.001 0.003,0.003 1.505,2.15 2.39,4.766 2.39,7.588 0,2.746 -0.835,5.297 -2.264,7.412 -0.041,0.062 -0.085,0.118 -0.127,0.176 1.736,1.474 3.979,2.369 6.429,2.369 h 5.042 c 1.324,-3.053 2.065,-6.417 2.065,-9.957 0,-3.539 -0.737,-6.903 -2.061,-9.955 C 63.416,63.482 63.151,62.932 62.868,62.392 62.631,61.941 62.386,61.494 62.122,61.06 62.102,61.027 62.086,61 62.069,60.971 62.021,60.893 61.97,60.818 61.922,60.741 59.13,56.278 54.973,52.76 50.034,50.768 49.426,50.523 48.808,50.297 48.178,50.098 48.144,50.087 48.11,50.077 48.075,50.066 47.97,50.034 47.863,50.007 47.757,49.977 c -0.27,-0.081 -0.541,-0.162 -0.816,-0.232 -0.004,-10e-4 -0.006,-10e-4 -0.009,-0.002 -2,-0.515 -4.095,-0.788 -6.255,-0.788 H 25.542 c -13.832,0 -25.044,11.212 -25.044,25.044 0,13.833 11.212,25.046 25.044,25.046 z" /><path
     style="fill:#000000"
     inkscape:connector-curvature="0"
     id="path21"
     d="M 53.058,97.803 C 53.055,97.802 53.052,97.8 53.048,97.8 c 0.004,0 0.007,0.002 0.01,0.003 z" /><path
     style="fill:#000000"
     inkscape:connector-curvature="0"
     id="path23"
     d="m 51.812,97.445 c 0.034,0.011 0.068,0.022 0.103,0.031 -0.034,-0.008 -0.068,-0.02 -0.103,-0.031 z" /><path
     style="fill:#000000"
     inkscape:connector-curvature="0"
     id="path25"
     d="m 47.805,81.141 c 0,0 0.311,0.539 1.011,1.303 0.005,-0.006 0.01,-0.012 0.016,-0.015 -0.369,-0.407 -0.709,-0.84 -1.025,-1.291 0,10e-4 -0.001,10e-4 -0.002,0.003 z" /><path
     style="fill:#000000"
     inkscape:connector-curvature="0"
     id="path27"
     d="m 37.92,86.572 c -0.018,-0.029 -0.034,-0.055 -0.054,-0.088 0.019,0.03 0.036,0.058 0.054,0.088 z" /><path
     style="fill:#000000"
     inkscape:connector-curvature="0"
     id="path29"
     d="m 48.832,82.429 c -0.006,0.003 -0.011,0.009 -0.016,0.015 0.319,0.347 0.711,0.734 1.206,1.148 0.001,-0.002 0.002,-0.003 0.002,-0.003 -0.42,-0.362 -0.82,-0.749 -1.192,-1.16 z" /><path
     style="fill:#000000"
     inkscape:connector-curvature="0"
     id="path31"
     d="m 50.027,83.592 c 10e-4,-0.003 0.004,-0.006 0.012,-0.015 -0.004,0.004 -0.01,0.008 -0.015,0.012 10e-4,0 0.002,0.001 0.003,0.003 z" /><rect
     style="fill:#000000"
     id="rect33"
     height="0.0040000002"
     width="0.0040000002"
     y="83.589996"
     x="50.021999" /></g>
</svg>